ply
format ascii 1.0
element vertex 161
property float x
property float y
property float z
end_header
-10.639347 -8.005272 3.722913
-3.090758 13.872471 4.196194
-6.009832 17.984632 5.148801
-5.961961 17.829189 4.902935
-10.710458 -8.076852 3.332540
-3.036955 13.582503 3.660205
-5.165706 17.855242 4.482283
-5.153389 17.851892 4.081295
-5.860264 17.558352 3.838938
-10.261061 -8.395980 2.506825
-5.100700 17.692610 3.460235
-5.125829 17.830723 3.287310
-3.583726 17.816561 3.287093
-5.109034 17.780622 3.084274
-2.063603 17.626387 3.089978
-2.711832 -8.688169 1.792261
-9.649761 -8.527441 2.074220
-2.062401 17.710981 2.913086
-9.675266 -8.557205 1.950939
-9.638347 -8.524259 1.817203
-9.639870 -8.534037 1.563499
-9.670401 -8.572997 1.313320
-4.898321 1.463319 -0.010228
-4.170193 1.404327 0.002664
-3.965776 1.309484 0.000775
-3.960605 1.453587 -0.006601
-3.840810 0.986395 0.003724
-3.750341 1.345042 -0.002697
-3.526525 1.600858 0.011485
-2.890223 2.786955 -0.028171
-3.612365 1.021980 0.008171
-3.489989 1.723941 -0.024379
-2.878205 2.470106 -0.023542
-2.656404 2.591243 -0.014767
-2.308389 2.816023 -0.011770
-1.665267 11.902062 -1.280332
-3.301198 1.290857 0.012126
-3.418598 1.494588 -0.023829
-2.739777 2.222731 -0.007945
-3.260286 1.390516 -0.017081
-3.251161 1.514861 -0.027501
-3.046537 1.591299 -0.002760
-2.926448 1.764791 -0.004282
-2.786697 1.924690 -0.004209
-2.238319 2.571841 -0.033161
-1.998351 2.590466 -0.015056
-1.650965 2.750055 -0.016453
-1.544301 2.834125 -0.024318
-3.103064 1.377346 -0.015730
-3.011934 1.433788 -0.006169
-2.871590 1.539738 0.004815
-2.667976 1.747879 0.009435
-2.539592 1.901355 0.005882
-2.068101 2.375981 -0.014826
-1.968029 2.413439 -0.012112
-1.860223 2.425283 -0.005202
-3.082353 0.949359 0.004039
-3.048537 1.223045 -0.015283
-2.930441 1.371354 -0.010081
-2.873101 1.415848 -0.005284
-2.807751 1.483049 -0.002408
-2.650000 1.587746 0.009503
-2.600560 1.670749 0.005502
-2.511176 1.671164 0.018823
-2.372296 2.007414 -0.014103
-2.298223 2.077336 -0.016384
-1.995744 2.189584 -0.002685
-1.910859 2.245910 -0.004743
-1.723682 2.316565 -0.002123
-1.627657 2.346370 -0.000785
-1.503700 2.365343 0.003429
-2.711879 1.368254 0.005549
-2.649007 1.428796 0.008378
-2.523625 1.549309 0.011896
-2.287766 1.825556 0.002434
-2.045852 2.001231 0.001107
-1.885064 2.098227 -0.000324
-1.780477 2.074269 0.013765
-1.509695 -2.411054 -0.018449
-2.757292 1.185460 -0.001691
-2.706124 1.251997 -0.000340
-2.583312 1.366521 0.006576
-2.387045 1.487384 0.021689
-2.299160 1.682703 0.002420
-2.081801 1.819816 0.007212
-1.410583 2.226451 -0.014445
-2.761215 -1.355437 -0.017116
-2.406778 1.388581 0.013506
-2.121608 1.675331 0.007435
-2.016606 1.649842 0.026664
-1.577324 1.997675 -0.000099
-1.392451 2.074311 -0.004637
-1.388062 -2.242885 -0.028750
-1.631057 -2.141602 -0.023220
-1.864714 -1.977974 -0.010746
-2.313801 -1.707156 -0.017096
-2.410035 1.253422 0.014957
-2.203364 1.509094 0.006066
-2.133119 1.542603 0.010666
-2.000746 1.620555 0.014245
-1.648242 1.850538 0.004590
-2.218741 1.371999 0.009840
-2.157062 1.411293 0.012910
-2.121479 1.490227 0.002912
-2.032641 1.486660 0.017665
-1.781556 1.691960 0.006237
-1.538454 1.729325 0.021637
-1.234482 -1.981428 -0.009130
-2.337064 -1.462215 -0.020374
-2.524923 -1.085432 0.004466
-2.242470 1.287490 0.002608
-2.180845 1.323782 0.007097
-2.001598 1.401074 0.022005
-1.939599 1.431174 0.025090
-1.754813 1.570341 0.018225
-1.537080 1.643775 0.023200
-1.472481 1.683268 0.018745
-1.208326 -1.819431 0.010124
-1.523643 -1.848877 -0.016026
-1.725498 -1.706798 -0.001244
-2.076216 1.242538 0.025322
-1.963258 1.307159 0.031316
-1.730580 1.508245 0.017763
-1.531404 1.547740 0.029584
-1.395177 1.654636 0.012811
-1.841020 -1.595063 -0.008775
-1.901844 -1.553397 -0.007477
-2.380007 -1.081265 -0.000442
-2.438447 -0.932586 0.009727
-1.449959 1.569360 0.013037
-1.383504 1.577809 0.015826
-1.757112 -1.486437 0.010264
-1.872589 1.279376 0.019282
-1.638961 1.355412 0.034419
-1.515048 1.484572 0.012816
-1.457311 1.522982 0.007400
-1.627609 -1.524417 -0.001478
-1.668363 -1.439426 0.016284
-1.723750 -1.405371 0.017874
-2.278887 -1.014261 -0.000410
-1.562855 1.366167 0.024357
-1.439670 1.436540 0.016636
-1.052856 -1.541983 0.013818
-1.519813 -1.441478 0.015865
-1.845450 -1.264677 0.018522
-1.659577 1.210635 0.040411
-1.626033 -1.368762 0.007289
-1.148962 -1.364732 0.016712
-1.191239 -1.344188 0.021909
-1.092003 -1.351221 0.006786
-1.135208 -1.299921 0.023234
-1.752478 -1.044744 0.035170
-1.032050 -1.235592 0.031898
-1.111113 -1.202550 0.042763
-1.489496 -1.222142 0.007680
-1.173972 -1.227586 0.017608
-1.393349 -1.152676 0.028595
-1.073366 -1.189389 0.019695
-1.295074 -1.164133 0.019583
-2.354258 0.938249 -0.455606
-2.277002 -0.277575 -0.397659
