ply
format ascii 1.0
element vertex 81
property float x
property float y
property float z
end_header
-6.931166 -8.125029 4.487060
-5.765363 -4.832201 3.798563
16.226414 -8.663632 4.756930
-6.906220 -8.103476 4.338289
-7.876500 -8.107424 4.572558
-8.648601 -7.916973 4.740587
-7.361283 -3.411012 4.039557
21.093040 -8.712953 5.672074
16.261017 -8.681642 4.599063
10.517008 -4.522078 2.833425
-9.481244 -7.695096 4.604914
-8.729121 -7.950536 4.301127
-9.525114 -7.713671 4.456788
-5.940534 -4.894449 3.405138
-7.172042 -4.783926 3.689497
-7.163434 -3.821097 3.639645
19.185963 -8.684981 4.655363
-6.993661 -5.334849 3.560114
-7.465601 -4.386512 3.614155
-8.835096 -4.266784 3.928178
13.152322 -5.284966 3.109857
19.221079 -8.698891 4.470007
-6.839094 -5.266617 3.400443
-7.207011 -4.790271 3.452756
-7.821256 -3.991626 3.554172
13.987429 -5.642020 3.162361
19.212942 -8.692030 4.275698
-4.003449 -8.269331 3.034643
19.254864 -8.709213 4.092093
-9.142764 -8.172040 3.786282
-6.122759 -4.959464 3.005771
-7.232873 -4.793360 3.214808
-6.778603 -5.231811 3.029338
-11.705024 -5.020394 3.950071
13.925204 -5.609277 2.773530
-4.630665 -8.252530 2.786981
-6.771604 -5.225782 2.910154
-2.648484 -8.595605 2.357496
-3.149231 -8.565901 2.409231
-4.735595 -8.185401 2.450572
-12.139291 -8.038518 3.426937
0.138989 -8.342029 1.570925
1.163545 -4.200911 1.116310
14.305429 -5.742105 0.932456
-8.272943 -8.258278 1.180751
4.353925 -8.812562 0.841710
2.173925 -2.693819 0.967179
2.126027 -8.324993 0.722032
0.636256 -2.800024 0.353929
9.427086 -3.636446 -0.622309
9.558588 -4.339289 -0.969963
2.892102 -2.887122 0.465383
0.454004 -3.229972 -0.048034
0.015941 -2.579775 -0.035022
6.675082 -3.159229 -0.313252
2.919911 -3.408937 0.187526
2.299319 -3.554725 -0.057389
2.141935 -3.354702 -0.036378
0.966736 -2.028222 0.015801
2.150650 -2.812793 -0.024142
1.519762 -2.129978 -0.001329
2.121231 -2.333687 -0.023811
2.094178 -2.256409 0.001356
2.087382 -2.069654 0.012146
2.059705 -1.986072 0.013239
2.201437 -2.069792 0.017375
2.342849 -1.886526 0.030697
2.508422 -1.970576 0.020895
2.471255 -1.936287 0.025286
2.574239 -1.902917 0.037054
2.491951 -1.770725 0.042397
2.202220 -1.108219 0.046665
2.550506 -1.724822 0.030822
2.469986 -1.554127 0.046435
2.304830 -1.107758 0.044343
2.746636 -1.746481 0.034919
2.617813 -1.627896 0.050908
2.567482 -1.550729 0.049435
2.769191 -1.726544 -0.014407
2.724263 -1.469868 0.077487
2.653416 -2.018715 -0.636410
