ply
format ascii 1.0
element vertex 88
property float x
property float y
property float z
end_header
-5.671122 18.037624 5.773461
-3.197284 18.252823 5.534648
-1.491562 17.837206 5.286653
0.003963 14.682000 4.434165
0.708873 17.828407 5.148895
-5.660146 18.009348 5.553178
-2.323678 14.209920 4.373908
-3.188285 18.221163 5.322999
-1.497913 17.851889 5.096858
0.011346 14.644218 4.269632
1.564852 18.137192 5.001089
11.688725 18.353443 5.501544
-3.682517 12.992040 4.134480
-3.032753 14.310409 4.311602
-3.955225 18.065536 5.162855
-3.190426 18.219332 5.120265
-0.852115 13.535117 3.941145
-0.040080 12.674386 3.696474
0.005993 14.660123 4.119073
1.067431 15.436019 4.233288
11.978151 13.256576 4.368014
-3.449954 13.777597 3.939678
-4.728269 17.884174 4.799971
-1.971120 13.359212 3.714288
-1.626498 14.029447 3.807238
-1.494798 17.817553 4.514394
-0.750916 17.830204 4.471116
-0.015398 17.815887 4.429938
-6.533790 17.895891 4.788922
-2.928789 14.073710 3.779431
-1.375002 15.112889 3.829115
-1.494153 17.807587 4.322707
0.881680 17.818701 4.208712
1.559702 18.140659 4.249142
11.138474 14.279448 3.935959
-2.943244 14.098741 3.628181
-1.538853 13.784451 3.458261
-0.010846 17.775251 4.051312
0.881356 17.811155 4.023707
12.251628 17.686617 4.395748
11.140622 14.279507 3.769022
11.258821 13.285330 3.634980
-6.511642 17.843470 4.356843
-2.932339 14.070216 3.466693
-1.495809 17.798193 3.944061
0.176407 17.731138 3.852365
0.885339 17.773098 3.834347
6.091168 19.630331 3.934370
12.245806 17.667450 3.984540
-6.516371 17.837524 3.938426
-3.669663 17.341064 3.641376
-2.100644 17.297070 3.533170
-0.670691 14.866400 3.117046
-0.685462 17.515646 3.491170
0.041666 17.480015 3.456502
0.920125 17.507061 3.431723
-7.330881 17.599195 3.776184
-6.374451 17.586182 3.689631
-5.467764 17.579451 3.613546
-3.816232 17.679937 3.503448
-0.707944 17.602173 3.322319
0.190534 17.628464 3.292033
13.103701 17.557415 3.633146
12.766807 14.329621 3.251508
-7.402442 17.704350 3.583199
-0.571451 17.795589 3.158926
0.171115 17.725451 3.124681
12.233302 17.631872 3.373272
13.113306 17.569170 3.429953
-5.581395 17.781496 3.242837
-4.665400 17.695374 3.172489
-0.566428 17.765572 2.972636
11.638116 18.204433 3.192644
11.599094 15.026930 2.880200
-3.072677 17.818380 2.710466
0.853867 17.928259 2.587467
-0.621252 17.982349 2.446683
-0.625500 17.985058 2.080659
-2.089168 17.758007 1.185972
3.038767 13.807369 -0.649376
0.771179 1.193225 0.017017
3.500917 2.968850 -0.049329
4.807208 2.003490 -0.014136
4.876307 1.373053 0.006523
1.793241 1.765544 0.006169
4.333119 2.249409 -0.029189
1.975864 1.538981 0.023582
2.307558 1.571723 0.031582
