ply
format ascii 1.0
element vertex 21
property float x
property float y
property float z
end_header
12.034090 -5.317586 3.208156
17.994045 -8.681311 4.816438
16.728195 -8.648866 4.382390
18.021620 -8.705320 4.280364
16.763720 -8.677665 4.054320
14.024845 -5.649345 3.058239
11.391518 -4.894936 2.519075
16.228931 -9.082539 3.851893
16.746128 -8.670120 3.714665
16.235392 -9.089724 3.688299
11.418012 14.180866 2.974105
12.217487 17.481789 3.251858
16.221268 -9.093137 2.706612
14.634722 -8.629040 1.786643
15.598286 -8.646468 1.235753
14.620661 -8.626279 1.212706
9.469437 -3.728406 -0.664263
6.850048 0.187769 -0.022608
5.871828 -0.260110 0.016416
4.447052 1.609191 -0.008791
5.155440 0.607076 0.007775
